# xmcd
# Track frame offsets:
# 150
# 18035
# 36389
# 55362
# 70707
# 90828
# 106063
# 123717
# 142222
# 168329
# 185507
# 200615
# 213651
# 231801
# 249338
#
# Disc length: 3530 seconds
# Revision: 0
# Processed by: cddbd v1.5.1PL0 Copyright (c) Steve Scherf et al.
# Submitted via: VisiTrax 2.9.10.228 - For more info visit www.synapsa.com
#
DISCID=d20dc80f
DTITLE=Hill, Faith - CB90046
DYEAR=1900
DGENRE=Karaoke
TTITLE0=But I Will
TTITLE1=Hard Way, The
TTITLE2=I Can't Do That Anymore
TTITLE3=It Matters To Me
TTITLE4=Let Me Let Go
TTITLE5=Let's Go To Vegas
TTITLE6=Love Ain't Like That
TTITLE7=Piece Of My Heart
TTITLE8=Somebody Stand By Me
TTITLE9=Someone Else's Dream
TTITLE10=This Kiss
TTITLE11=Wild One
TTITLE12=You Can't Lose Me
TTITLE13=You Give Me Love
TTITLE14=Take Me As I Am
EXTD=
EXTT0=
EXTT1=
EXTT2=
EXTT3=
EXTT4=
EXTT5=
EXTT6=
EXTT7=
EXTT8=
EXTT9=
EXTT10=
EXTT11=
EXTT12=
EXTT13=
EXTT14=
PLAYORDER=
